<?xml version="1.0" encoding="UTF-8"?>
<svg xmlns="http://www.w3.org/2000/svg" viewBox="0 0 1024 1024">
  <!-- Brand-yellow circle that fills the full icon canvas. Android's
       circular and squircle home-screen masks are inscribed in this
       full-bleed circle, so the colored fill always reaches the edge. -->
  <circle cx="512" cy="512" r="512" fill="#E4C25D"/>
  <!-- Logo centered inside the safe zone (80% of canvas = 819px box,
       centered at 512,512). Source viewBox is 436.65 × 450.02; we scale
       the larger dimension to 700px and translate so the bounding box
       is centered. -->
  <g transform="translate(172.21,162.49) scale(1.5554)">
    <path fill="#231f20" d="M39.68,71.54l117.46,9.88s24.86-1.13,40.66-23.15l-14.12-55.91c26.07-3.29,46.32-2.92,67.39-.24l-14.31,56.15s13,24,50.76,22.57c5.73-.21,107.36-9.59,107.36-9.59l-57.08,80-44,4.17s-17.51,2.82-31.62-2.26c-8.28-2.92-16.05-7.15-23-12.52l-21.92,49.65-21-49.56c-4.05,1.93-7.94,4.2-11.62,6.78-15.58,10.45-42.21,8.28-42.21,8.28l-44.75-3.66-58-80.59Z"/>
    <path fill="#231f20" d="M177.75,450l-50.14-106.66s-13.39-21-40.37-23.65l-41.37,40.17c-15.87-20.94-25.67-38.65-33.87-58.25l55.79-15.67s14.27-23.24-5.79-55.24C58.95,225.84,0,142.49,0,142.49l97.8,9.51,25.6,36s11.19,13.75,13.84,28.52c1.61,8.63,1.82,17.46.64,26.16l54-5.83-32.48,42.94c3.7,2.55,7.61,4.78,11.68,6.68,16.84,8.28,28.27,32.43,28.27,32.43l19.19,40.59-40.79,90.51Z"/>
    <path fill="#231f20" d="M436.65,141.18l-67.3,96.82s-11.45,22.09-.28,46.79l55.47,15.74c-10.19,24.17-20.63,41.47-33.49,58.47l-41.47-40.47s-27.28-.75-44.93,32.66c-2.68,5.08-45.39,97.77-45.39,97.77l-40.71-89.42,18.45-40.24s6.31-16.57,17.77-26.26c6.67-5.71,14.21-10.31,22.33-13.63l-32.1-43.81,53.4,6.61c.36-4.48.34-8.98-.05-13.46-1.26-18.71,13.94-40.69,13.94-40.69l25.55-36.93,98.81-9.95Z"/>
  </g>
</svg>
