<?xml version="1.0" encoding="utf-8"?>
<!-- Generator: Adobe Illustrator 27.9.6, SVG Export Plug-In . SVG Version: 9.03 Build 54986)  -->
<svg version="1.1" xmlns="http://www.w3.org/2000/svg" xmlns:xlink="http://www.w3.org/1999/xlink" x="0px" y="0px"
	 viewBox="0 0 24 24" style="enable-background:new 0 0 24 24;" xml:space="preserve">
<style type="text/css">
	.st0{display:none;}
	.st1{display:inline;}
	.st2{stroke:currentColor;stroke-miterlimit:10;}
	.st3{fill:none;stroke:currentColor;stroke-width:2;stroke-linecap:round;stroke-miterlimit:10;}
</style>
<g id="Layer_1" class="st0">
	<g class="st1">
		<path class="st2" d="M4.7,4.8l4.3,4l-1.3,1.4l-2-1.9v8.3c0,1.1,0.9,2,2,2H13v2H7.6c-2.2,0-3.9-1.7-3.9-3.9V8.4l-2,1.9L0.3,8.8
			L4.7,4.8z M16.4,6.9H11v-2h5.4c2.2,0,3.9,1.7,3.9,3.9v8.3l2-1.9l1.3,1.4l-4.3,4l-4.3-4l1.3-1.4l2,1.9V8.8
			C18.3,7.7,17.5,6.9,16.4,6.9z"/>
	</g>
</g>
<g id="Layer_2">
	<g>
		<path class="st3" d="M1.2,9l3.2-3.1c0.1-0.1,0.2-0.1,0.3,0L7.8,9"/>
		<path class="st3" d="M4.6,5.9l0,10.5c0,0,0,3.4,3,3.4h5.8"/>
	</g>
	<g>
		<path class="st3" d="M22.5,16.6l-3.2,3.1c-0.1,0.1-0.2,0.1-0.3,0l-3.1-3.1"/>
		<path class="st3" d="M19.2,19.7l0-10.5c0,0,0-3.4-3-3.4h-5.8"/>
	</g>
</g>
</svg>
