<?xml version="1.0" encoding="UTF-8"?>
<svg id="Layer_1" xmlns="http://www.w3.org/2000/svg" version="1.1" viewBox="0 0 366.6 197.5">
  <!-- Generator: Adobe Illustrator 29.8.6, SVG Export Plug-In . SVG Version: 2.1.1 Build 1)  -->
  <defs>
    <style>
      .st0 {
        stroke: #000;
        stroke-miterlimit: 10;
        stroke-width: .8px;
      }
    </style>
  </defs>
  <path class="st0" d="M162.6,51.2l20.5-47.1,22.1,47.5s15.3-18.1,55.6-13.3c0,0,37.4,4,40.7,4.4l59.6,79.7s-68.8-8.5-103.9-9.3c-35-.8-53.1,15.3-53.9,20.9s14.5,57.6,14.5,57.6c0,0-27,7.6-69.7.8,0,0,16.9-52.3,10.9-61.6s-23.4-20.9-51.1-17.7L3.2,122,62.8,41.5s48.7-5.6,62-4.4c0,0,19.7,1.2,37.8,14.1Z"/>
</svg>