<svg xmlns="http://www.w3.org/2000/svg" width="100%" height="100%" viewBox="0 0 270 270" fill="none"><title>gilgamesh</title><defs><clipPath id="c"><rect width="270" height="270" rx="22" ry="22"/></clipPath></defs><g clip-path="url(#c)"><rect width="270" height="270" fill="url(#g)"/><path d="M30.36,35.15l15.28,1.29a7.47,7.47,0,0,0,5.29-3l-1.84-7.27a33,33,0,0,1,8.77,0L56,33.42s1.69,3.13,6.6,2.94c.75,0,14-1.25,14-1.25L69.15,45.52l-5.73.54a9.57,9.57,0,0,1-4.11-.29,10.59,10.59,0,0,1-3-1.63L53.47,50.6l-2.73-6.45a10.13,10.13,0,0,0-1.52.88c-2,1.36-5.49,1.08-5.49,1.08l-5.82-.48Z" style="fill:#000000"/><path d="M48.32,84.39,41.8,70.51a7.45,7.45,0,0,0-5.25-3.07l-5.39,5.22a33.26,33.26,0,0,1-4.4-7.58L34,63s1.86-3-.75-7.18c-.4-.63-8.06-11.48-8.06-11.48l12.72,1.23,3.33,4.69A9.54,9.54,0,0,1,43.05,54a10.71,10.71,0,0,1,.09,3.41l7-.76-4.22,5.59a10.44,10.44,0,0,0,1.52.86c2.19,1.08,3.67,4.22,3.67,4.22l2.5,5.28Z" style="fill:#000000"/><path d="M82,44.21,73.25,56.8a7.46,7.46,0,0,0,0,6.09l7.22,2a32.65,32.65,0,0,1-4.36,7.6l-5.39-5.26s-3.55-.1-5.85,4.25c-.35.66-5.9,12.72-5.9,12.72l-5.3-11.64L56,67.39A9.69,9.69,0,0,1,58.34,64a10.82,10.82,0,0,1,2.9-1.78L57.07,56.5l6.95.86a11.11,11.11,0,0,0,0-1.76c-.17-2.43,1.81-5.29,1.81-5.29l3.32-4.8Z" style="fill:#000000"/><path d="M766,794Q694,845 585,845Q448,845 353.5,673Q259,501 259,250Q259,120 336,120Q424,120 551,256Q727,445 753,684L766,794ZM937,918Q932,900 931,896L920,843Q907,785 906,779L866,413Q856,321 845,90Q831,-199 790,-338Q749,-477 645,-586Q407,-837 138,-837Q8,-837 -78,-749Q-164,-661 -164,-529Q-164,-260 165,2Q95,57 95,196Q95,498 294,721Q493,944 764,944Q879,944 937,918ZM721,393Q451,-19 232,-19Q223,-19 200,-17Q-32,-251 -32,-434Q-32,-559 56.5,-643.5Q145,-728 276,-728Q478,-728 586,-550Q668,-413 700,103Q712,298 721,393Z" transform="translate(56.394532,231) scale(0.02246,-0.02246)" fill="rgb(235,192,70)" stroke="rgb(235,192,70)" stroke-width="50" stroke-linejoin="round" stroke-linecap="round"/><path d="M591,291Q618,275 618,260Q618,224 531,118Q414,-26 314,-26Q241,-26 241,71Q241,112 271,323L310,595L320,664L328,719Q333,754 333,778Q333,828 305,828Q227,828 137,656Q118,673 118,690Q118,751 230.5,854Q343,957 410,957Q485,957 485,853Q485,833 477,771L468,704Q467,696 457,623L416,337L406,273Q393,178 393,146Q393,103 418,103Q502,103 591,291ZM390,1086L474,1293Q586,1339 658,1420Q668,1406 668,1391Q668,1257 390,1086Z" transform="translate(77.844727,231) scale(0.02246,-0.02246)" fill="rgb(235,192,70)" stroke="rgb(235,192,70)" stroke-width="50" stroke-linejoin="round" stroke-linecap="round"/><path d="M512,294Q541,280 541,258Q541,186 433.5,80Q326,-26 253,-26Q170,-26 170,94Q170,167 179,243L190,332L267,1028Q303,1346 485.5,1559Q668,1772 906,1772Q964,1772 1004,1762L862,1617Q815,1633 752,1633Q602,1633 527.5,1527.5Q453,1422 425,1170L332,332Q321,235 321,193Q321,103 352,103Q389,103 439,162.5Q489,222 512,294Z" transform="translate(91.456055,231) scale(0.02246,-0.02246)" fill="rgb(235,192,70)" stroke="rgb(235,192,70)" stroke-width="50" stroke-linejoin="round" stroke-linecap="round"/><path d="M766,794Q694,845 585,845Q448,845 353.5,673Q259,501 259,250Q259,120 336,120Q424,120 551,256Q727,445 753,684L766,794ZM937,918Q932,900 931,896L920,843Q907,785 906,779L866,413Q856,321 845,90Q831,-199 790,-338Q749,-477 645,-586Q407,-837 138,-837Q8,-837 -78,-749Q-164,-661 -164,-529Q-164,-260 165,2Q95,57 95,196Q95,498 294,721Q493,944 764,944Q879,944 937,918ZM721,393Q451,-19 232,-19Q223,-19 200,-17Q-32,-251 -32,-434Q-32,-559 56.5,-643.5Q145,-728 276,-728Q478,-728 586,-550Q668,-413 700,103Q712,298 721,393Z" transform="translate(103.719726,231) scale(0.02246,-0.02246)" fill="rgb(235,192,70)" stroke="rgb(235,192,70)" stroke-width="50" stroke-linejoin="round" stroke-linecap="round"/><path d="M728,397Q615,211 479.5,92.5Q344,-26 244,-26Q107,-26 107,195Q107,499 306.5,721.5Q506,944 779,944Q883,944 956,918Q951,900 950,896L938,843Q926,788 925,779L861,337L852,273Q839,178 839,146Q839,103 864,103Q948,103 1036,291Q1063,275 1063,259Q1063,224 977,118Q860,-26 760,-26Q687,-26 687,72Q687,102 694,155L704,235L717,323L728,397ZM785,794Q694,845 601,845Q461,845 366,674Q271,503 271,250Q271,120 348,120Q437,120 563,256Q733,439 769,686L785,794Z" transform="translate(125.169921,231) scale(0.02246,-0.02246)" fill="rgb(235,192,70)" stroke="rgb(235,192,70)" stroke-width="50" stroke-linejoin="round" stroke-linecap="round"/><path d="M887,35L739,-26L742,2L750,76L757,146L807,595L814,646Q818,686 818,724Q818,821 759,821Q667,821 544.5,633Q422,445 403,275L377,35L228,-26L231,2L239,76L247,146L298,610L304,663Q311,725 311,763Q311,827 279,827Q204,827 117,657Q94,676 94,690Q94,750 203.5,853.5Q313,957 377,957Q463,957 463,847Q463,819 458,772L450,691L442,623L434,552L462,596Q686,957 879,957Q972,957 972,823Q972,800 964,726L954,634L940,509Q1033,702 1160.5,829.5Q1288,957 1388,957Q1487,957 1487,829Q1487,774 1476,698L1423,327Q1406,212 1406,149Q1406,96 1435,96Q1469,96 1520.5,153Q1572,210 1603,282Q1630,264 1630,249Q1630,186 1518.5,80Q1407,-26 1341,-26Q1256,-26 1256,88Q1256,160 1278,311L1313,552Q1315,565 1320,609Q1322,627 1327,670Q1332,713 1332,736Q1332,821 1276,821Q1182,821 1057.5,633Q933,445 914,275L887,35Z" transform="translate(148.776366,231) scale(0.02246,-0.02246)" fill="rgb(235,192,70)" stroke="rgb(235,192,70)" stroke-width="50" stroke-linejoin="round" stroke-linecap="round"/><path d="M714,318Q739,301 739,278Q739,247 675,172Q504,-26 337,-26Q235,-26 169,55Q103,136 103,262Q103,490 275.5,723.5Q448,957 617,957Q739,957 739,826Q739,679 596.5,539Q454,399 249,344Q269,103 439,103Q607,103 714,318ZM253,466Q282,456 306,456Q430,456 523,532Q616,608 616,710Q616,827 497,827Q411,827 341.5,724.5Q272,622 253,466Z" transform="translate(185.073241,231) scale(0.02246,-0.02246)" fill="rgb(235,192,70)" stroke="rgb(235,192,70)" stroke-width="50" stroke-linejoin="round" stroke-linecap="round"/><path d="M43,28L181,141Q259,58 377,58Q521,58 521,197Q521,274 389,412L332,471Q207,602 207,683Q207,799 307.5,878Q408,957 555,957Q635,957 730,927L610,816Q534,873 441,873Q332,873 332,782Q332,717 453,591L515,525Q653,381 653,293Q653,167 532,70.5Q411,-26 253,-26Q141,-26 43,28Z" transform="translate(202.166014,231) scale(0.02246,-0.02246)" fill="rgb(235,192,70)" stroke="rgb(235,192,70)" stroke-width="50" stroke-linejoin="round" stroke-linecap="round"/><path d="M367,552Q484,728 624.5,842.5Q765,957 865,957Q962,957 962,822Q962,782 950,699L897,326Q881,214 881,149Q881,97 909,97Q978,97 1078,281Q1103,266 1103,250Q1103,185 991.5,79.5Q880,-26 810,-26Q732,-26 732,86Q732,168 753,313L787,555Q804,674 804,744Q804,821 749,821Q621,821 490,647.5Q359,474 336,275L310,35L161,-26L164,2L172,76L180,146L277,1022Q312,1332 507,1551.5Q702,1771 943,1771Q993,1771 1040,1760L893,1616Q836,1633 785,1633Q488,1633 436,1169L367,552Z" transform="translate(218.517576,231) scale(0.02246,-0.02246)" fill="rgb(235,192,70)" stroke="rgb(235,192,70)" stroke-width="50" stroke-linejoin="round" stroke-linecap="round"/></g><rect x="0.5" y="0.5" width="269" height="269" rx="22" ry="22" fill="none" stroke="rgba(240,177,0,0.3)" stroke-width="1"/><defs><linearGradient id="g" x1="110.5" y1="140" x2="8" gradientUnits="userSpaceOnUse"><stop stop-color="#000000"/><stop offset="0.35" stop-color="#ECc052"/><stop offset="1" stop-color="#ECc052"/></linearGradient></defs></svg>