<svg xmlns="http://www.w3.org/2000/svg" version="1.1" viewBox="-5.0 -10.0 110.0 135.0">
 <path d="m77.789 78.879c-2.168-1.9648-11.242-21.676-11.242-21.676l9.7539 3.5898s-12.262-15.984-18.832-30.277-14.766-12.664-14.766-12.664c-0.26953-1.4883 0.8125-6.3008 0.8125-6.3008l8.2617-4.4023c-3.793-4.5391-12.125-0.47266-12.125-0.47266-13.504-3.9258-16.965 14.527-16.965 14.527-1.4883 10.664 3.3359 12.434 3.9609 12.617 0.023437 0.27734 0.53516 1.9805 3.7266 10.312 1.6641 4.0078 4.2109 7.5859 7.457 10.473 0.8125 2.2305 1.1523 4.2266 0.33203 5.1719-2.4336 2.8047-10.227 7.6523-14.156 7.7227-3.9297 0.066406-2.3711 4.6055-2.3711 4.6055-0.20312-1.4883 1.6953-3.6562 9.0078-3.793 7.3164-0.13672 8.0938 3.793 8.0938 3.793 2-3.8594-5.5898-5.2148-5.5898-5.2148 0.74609-1.3555 7.8555-5.418 7.8555-5.418l2.1836-2.5859h0.003906c1.5859 1.0898 3.2305 2.0977 4.9219 3.0117-1.8945 1.6836-3.9648 3.043-5.3281 3.0781-2.6016 0.066407-1.5703 4.6055-1.5703 4.6055-0.13281-1.4883 1.1211-3.6562 5.9648-3.793 1.2266-0.085937 2.4453 0.22266 3.4805 0.88672 3.6055 12.625 15.547 28.324 15.547 28.324l-4.6055-27.297 17.066 19.574zm-41.801-67.77c-0.51562 0-0.97656-0.30859-1.1758-0.78516-0.19531-0.47656-0.085938-1.0234 0.27734-1.3867 0.36328-0.36328 0.91016-0.47266 1.3867-0.27344 0.47266 0.19531 0.78516 0.66016 0.78516 1.1719 0 0.33984-0.13281 0.66406-0.375 0.90234-0.23828 0.23828-0.55859 0.37109-0.89844 0.37109zm12.852 53.258c0.25781-0.51953 0.59766-0.99219 1.0078-1.4023 0.09375 0.64062 0.21875 1.2969 0.36719 1.9648v-0.003907c-0.44141-0.23047-0.90234-0.41406-1.375-0.55859z"/>
</svg>
