<svg xmlns="http://www.w3.org/2000/svg" version="1.1" viewBox="-5.0 -10.0 110.0 135.0">
 <path d="m16.426 81.734 7.5586-5.7109h4.1289l15.16-10.742c1.7773 1.5078 4.625 4.1328 4.625 5.457 0 1.9258-2.4453 0.93359-4.6641 1.6914-2.2227 0.75781-1.043 3.6211-1.043 3.6211l1.043-1.8672c2.0195 1.4023 6.1133-1.1094 6.1133-1.1094s6.3359 3.7969 8.1289 1.5781c1.7969-2.2188 5.1875 0.35156 5.1875 0.35156-1.293-3.5703-3.7461-3.2734-5.0195-2.8242 1.6641-1.6016 4.707-0.042969 4.707-0.042969l-0.003906-0.003907c-0.24219-0.46094-0.53906-0.89453-0.88672-1.2812-2.4414-4.0859-5.9141-1.0156-5.9141-1.0156l-4.7969 0.015624-0.13281 0.10156-4.0391-4.7266 8.0586 0.26172 4.1914 2.2148s6.0195 4.6719 6.0195 6.5977-2.4453 0.93359-4.6641 1.6914c-2.2188 0.76172-1.043 3.6211-1.043 3.6211l1.043-1.8672c2.0195 1.4023 6.1133-1.1094 6.1133-1.1094s6.3359 3.7969 8.1289 1.5781c1.7969-2.2188 5.1875 0.35156 5.1875 0.35156-1.293-3.5703-3.7461-3.2734-5.0195-2.8242 1.6641-1.6016 4.707-0.042969 4.707-0.042969v-0.003907c-0.24219-0.46094-0.53906-0.89453-0.88672-1.2852-2.4414-4.0859-5.9141-1.0156-5.9141-1.0156l-4.7969 0.015625-0.13281 0.10156-5.2148-6.1016 0.33203-1.6602 2.3398 0.078125s20.039-25.312 20.918-27.863c0.87891-2.5508-2.8984-9.2266-2.8984-9.2266l1.668-1.9336h10.285c-0.16406-1.9922-1.2695-3.7812-2.9805-4.8164l-7.832-1.4258c-0.085938-1.582-6.2383-3.0742-11.863-1.8438s-7.9961 9.4023-7.9961 9.4023c-16.789 5.1875-29.969 25.398-29.969 25.398l-2.7266 5.2734-9.8438 7.5586 2.8984 0.003907-19.688 15.379zm64.305-60.281c0.51953 0 0.99219 0.3125 1.1914 0.79688 0.19922 0.48047 0.089844 1.0352-0.28125 1.4023-0.36719 0.37109-0.92188 0.48047-1.4062 0.28125-0.48047-0.19922-0.79297-0.66797-0.79297-1.1914 0-0.71094 0.57422-1.2891 1.2891-1.2891z"/>
</svg>
