<svg xmlns="http://www.w3.org/2000/svg" width="270" height="280" viewBox="0 0 250 300">
  <path transform="translate(50 -35) scale(0.6)" stroke="#E7B413" stroke-width="20" d="
  M24 73.625
  H224
  A24 24 0 0 1 248 97.625
  V182.375
  A24 24 0 0 1 224 206.375
  H24
  A24 24 0 0 1 0 182.375
  V97.625
  A24 24 0 0 1 24 73.625
  Z" />
  <path transform="translate(25 -20) scale(0.8)" stroke="#E7B413" stroke-width="20" d="
  M24 73.625
  H224
  A24 24 0 0 1 248 97.625
  V182.375
  A24 24 0 0 1 224 206.375
  H24
  A24 24 0 0 1 0 182.375
  V97.625
  A24 24 0 0 1 24 73.625
  Z" />

  <path stroke="#E7B413" stroke-width="20" d="
  M24 73.625
  H224
  A24 24 0 0 1 248 97.625
  V182.375
  A24 24 0 0 1 224 206.375
  H24
  A24 24 0 0 1 0 182.375
  V97.625
  A24 24 0 0 1 24 73.625
  Z" />

  <path transform="translate(125 -15) rotate(45) scale(0.9)" fill="#E7B413" d="M 115.62 147.98 C 115.16 148.11 114.64 148.15 114.16 148.11 C 113.68 148.07 113.18 147.92 112.72 147.75 C 112.26 147.58 111.82 147.34 111.40 147.10 C 110.98 146.86 110.57 146.60 110.18 146.32 C 109.78 146.05 109.41 145.76 109.05 145.45 C 108.69 145.14 108.35 144.82 108.01 144.49 C 107.67 144.17 107.34 143.83 107.00 143.50 C 106.67 143.17 106.33 142.83 106.00 142.50 C 105.67 142.17 105.33 141.83 105.00 141.50 C 104.67 141.17 104.33 140.83 104.00 140.50 C 103.67 140.16 103.33 139.83 103.01 139.49 C 102.68 139.15 102.36 138.81 102.05 138.45 C 101.74 138.09 101.45 137.71 101.17 137.33 C 100.90 136.94 100.64 136.53 100.38 136.12 C 100.12 135.71 99.88 135.29 99.63 134.87 C 99.37 134.46 99.12 134.04 98.88 133.62 C 98.63 133.21 98.37 132.79 98.13 132.37 C 97.89 131.94 97.65 131.52 97.43 131.07 C 97.20 130.63 96.99 130.17 96.80 129.70 C 96.61 129.23 96.43 128.73 96.26 128.24 C 96.08 127.75 95.92 127.25 95.75 126.75 C 95.59 126.25 95.42 125.75 95.27 125.23 C 95.11 124.72 94.96 124.21 94.84 123.66 C 94.72 123.11 94.63 122.53 94.54 121.96 C 94.45 121.38 94.39 120.78 94.30 120.20 C 94.21 119.62 94.10 119.07 94.00 118.50 C 93.90 117.93 93.79 117.38 93.72 116.78 C 93.64 116.19 93.59 115.57 93.57 114.95 C 93.54 114.33 93.54 113.67 93.57 113.05 C 93.59 112.43 93.64 111.81 93.72 111.22 C 93.79 110.63 93.90 110.07 94.01 109.51 C 94.11 108.95 94.23 108.40 94.34 107.84 C 94.45 107.28 94.55 106.72 94.67 106.17 C 94.79 105.62 94.91 105.08 95.05 104.55 C 95.19 104.02 95.35 103.52 95.51 103.01 C 95.67 102.50 95.83 102.00 96.00 101.50 C 96.17 101.00 96.33 100.50 96.51 100.01 C 96.68 99.52 96.86 99.02 97.05 98.55 C 97.24 98.08 97.45 97.62 97.67 97.17 C 97.90 96.73 98.14 96.31 98.38 95.88 C 98.63 95.46 98.88 95.04 99.13 94.63 C 99.38 94.21 99.63 93.79 99.88 93.38 C 100.14 92.97 100.40 92.56 100.67 92.17 C 100.95 91.79 101.25 91.41 101.55 91.05 C 101.85 90.69 102.18 90.35 102.50 90.00 C 102.82 89.65 103.15 89.31 103.45 88.95 C 103.76 88.59 104.05 88.21 104.34 87.84 C 104.64 87.47 104.90 87.07 105.22 86.72 C 105.53 86.36 105.86 86.03 106.22 85.72 C 106.57 85.40 106.97 85.14 107.34 84.84 C 107.71 84.54 108.09 84.26 108.44 83.94 C 108.79 83.63 109.13 83.29 109.44 82.94 C 109.76 82.59 110.04 82.21 110.34 81.84 C 110.64 81.47 110.90 81.07 111.22 80.72 C 111.53 80.36 111.86 80.03 112.22 79.72 C 112.57 79.40 112.97 79.14 113.33 78.83 C 113.70 78.53 114.07 78.24 114.40 77.90 C 114.73 77.57 115.03 77.20 115.33 76.83 C 115.62 76.45 115.88 76.05 116.17 75.67 C 116.45 75.29 116.74 74.91 117.05 74.55 C 117.36 74.19 117.68 73.85 118.01 73.51 C 118.34 73.17 118.67 72.84 119.01 72.51 C 119.35 72.18 119.69 71.86 120.05 71.55 C 120.41 71.24 120.79 70.95 121.16 70.66 C 121.53 70.36 121.93 70.10 122.28 69.78 C 122.64 69.47 122.97 69.14 123.29 68.79 C 123.61 68.45 123.89 68.05 124.21 67.71 C 124.53 67.36 124.86 67.03 125.22 66.72 C 125.57 66.40 125.97 66.14 126.34 65.84 C 126.71 65.54 127.09 65.26 127.44 64.94 C 127.79 64.63 128.13 64.29 128.44 63.94 C 128.76 63.59 129.04 63.21 129.33 62.83 C 129.62 62.46 129.88 62.05 130.17 61.67 C 130.47 61.30 130.77 60.93 131.10 60.60 C 131.43 60.27 131.80 59.97 132.17 59.67 C 132.55 59.38 132.95 59.12 133.33 58.83 C 133.71 58.55 134.09 58.26 134.45 57.95 C 134.81 57.64 135.15 57.32 135.49 56.99 C 135.83 56.67 136.16 56.33 136.50 56.00 C 136.83 55.67 137.17 55.33 137.50 55.00 C 137.83 54.67 138.17 54.33 138.50 54.00 C 138.83 53.67 139.17 53.33 139.50 53.00 C 139.83 52.67 140.17 52.33 140.50 52.00 C 140.83 51.67 141.17 51.33 141.50 51.00 C 141.83 50.67 142.17 50.33 142.50 50.00 C 142.83 49.67 143.17 49.33 143.50 49.00 C 143.83 48.67 144.17 48.33 144.50 48.00 C 144.83 47.67 145.17 47.33 145.50 47.00 C 145.83 46.67 146.17 46.33 146.50 46.00 C 146.84 45.67 147.17 45.33 147.51 45.01 C 147.85 44.68 148.19 44.36 148.55 44.05 C 148.91 43.74 149.29 43.45 149.67 43.17 C 150.05 42.88 150.45 42.62 150.84 42.34 C 151.23 42.07 151.61 41.78 152.01 41.51 C 152.40 41.24 152.79 40.96 153.21 40.71 C 153.63 40.46 154.07 40.24 154.52 40.02 C 154.96 39.79 155.42 39.59 155.88 39.38 C 156.35 39.18 156.81 38.98 157.29 38.79 C 157.77 38.60 158.26 38.43 158.76 38.26 C 159.25 38.08 159.75 37.92 160.25 37.75 C 160.75 37.59 161.25 37.42 161.77 37.27 C 162.28 37.11 162.79 36.96 163.33 36.83 C 163.87 36.71 164.44 36.61 165.00 36.50 C 165.56 36.39 166.13 36.29 166.68 36.18 C 167.24 36.07 167.77 35.93 168.34 35.84 C 168.90 35.74 169.49 35.65 170.10 35.60 C 170.71 35.55 171.37 35.53 172.01 35.52 C 172.65 35.52 173.31 35.53 173.94 35.56 C 174.57 35.59 175.19 35.64 175.78 35.72 C 176.37 35.79 176.93 35.90 177.49 36.01 C 178.05 36.11 178.60 36.23 179.16 36.34 C 179.72 36.45 180.28 36.55 180.83 36.67 C 181.38 36.79 181.92 36.91 182.45 37.05 C 182.98 37.19 183.48 37.35 183.99 37.51 C 184.50 37.67 185.00 37.83 185.50 38.00 C 186.00 38.17 186.50 38.33 186.99 38.51 C 187.48 38.68 187.98 38.86 188.45 39.05 C 188.92 39.24 189.38 39.45 189.83 39.67 C 190.28 39.88 190.72 40.12 191.16 40.34 C 191.60 40.57 192.05 40.78 192.49 41.01 C 192.93 41.24 193.37 41.46 193.78 41.72 C 194.19 41.97 194.57 42.26 194.94 42.56 C 195.31 42.85 195.65 43.18 196.00 43.50 C 196.35 43.82 196.69 44.15 197.05 44.45 C 197.41 44.76 197.79 45.05 198.17 45.33 C 198.55 45.62 198.95 45.88 199.33 46.17 C 199.71 46.45 200.09 46.74 200.44 47.06 C 200.79 47.37 201.13 47.71 201.44 48.06 C 201.76 48.41 202.05 48.79 202.33 49.17 C 202.62 49.55 202.88 49.95 203.16 50.34 C 203.44 50.73 203.72 51.11 204.00 51.50 C 204.28 51.89 204.56 52.27 204.83 52.67 C 205.10 53.07 205.36 53.47 205.61 53.89 C 205.86 54.31 206.10 54.73 206.33 55.17 C 206.56 55.60 206.78 56.06 206.99 56.51 C 207.21 56.96 207.41 57.42 207.62 57.88 C 207.82 58.35 208.02 58.81 208.21 59.29 C 208.40 59.77 208.57 60.26 208.74 60.76 C 208.92 61.25 209.08 61.75 209.25 62.25 C 209.42 62.75 209.58 63.25 209.74 63.76 C 209.90 64.26 210.06 64.77 210.21 65.29 C 210.35 65.81 210.49 66.35 210.62 66.88 C 210.75 67.42 210.87 67.96 210.98 68.52 C 211.10 69.07 211.21 69.63 211.28 70.22 C 211.36 70.81 211.41 71.43 211.44 72.06 C 211.48 72.69 211.48 73.35 211.49 74.01 C 211.50 74.66 211.50 75.34 211.48 75.98 C 211.47 76.63 211.45 77.29 211.40 77.90 C 211.35 78.51 211.26 79.10 211.16 79.66 C 211.05 80.22 210.91 80.74 210.78 81.28 C 210.65 81.81 210.51 82.34 210.37 82.87 C 210.24 83.40 210.10 83.94 209.96 84.46 C 209.81 84.98 209.65 85.49 209.49 85.99 C 209.33 86.50 209.17 87.00 209.00 87.50 C 208.83 88.00 208.67 88.50 208.49 88.99 C 208.32 89.48 208.14 89.98 207.95 90.45 C 207.76 90.92 207.55 91.38 207.33 91.83 C 207.12 92.28 206.88 92.72 206.66 93.16 C 206.43 93.60 206.22 94.05 205.99 94.49 C 205.76 94.93 205.54 95.37 205.28 95.78 C 205.02 96.19 204.74 96.57 204.44 96.94 C 204.14 97.31 203.82 97.65 203.49 97.99 C 203.17 98.33 202.83 98.66 202.50 99.00 C 202.17 99.34 201.83 99.67 201.51 100.01 C 201.18 100.35 200.86 100.69 200.55 101.05 C 200.24 101.41 199.95 101.79 199.67 102.17 C 199.38 102.55 199.12 102.95 198.83 103.33 C 198.55 103.71 198.26 104.09 197.95 104.45 C 197.64 104.81 197.32 105.15 196.99 105.49 C 196.67 105.83 196.33 106.16 196.00 106.50 C 195.67 106.83 195.33 107.17 195.00 107.50 C 194.67 107.83 194.33 108.17 194.00 108.50 C 193.67 108.83 193.33 109.17 193.00 109.50 C 192.67 109.83 192.33 110.17 192.00 110.50 C 191.67 110.83 191.33 111.17 191.00 111.50 C 190.67 111.83 190.33 112.17 190.00 112.50 C 189.67 112.83 189.33 113.17 189.00 113.50 C 188.67 113.83 188.33 114.17 188.00 114.50 C 187.67 114.83 187.33 115.17 187.00 115.50 C 186.66 115.83 186.33 116.17 185.99 116.49 C 185.65 116.82 185.31 117.14 184.95 117.45 C 184.59 117.76 184.21 118.05 183.84 118.34 C 183.47 118.64 183.07 118.90 182.72 119.22 C 182.36 119.53 182.03 119.86 181.72 120.22 C 181.40 120.57 181.14 120.97 180.84 121.34 C 180.55 121.71 180.26 122.09 179.95 122.45 C 179.64 122.81 179.32 123.15 178.98 123.48 C 178.65 123.82 178.31 124.14 177.95 124.45 C 177.59 124.76 177.21 125.05 176.84 125.34 C 176.47 125.64 176.07 125.90 175.72 126.22 C 175.36 126.53 175.03 126.86 174.71 127.21 C 174.39 127.55 174.11 127.95 173.79 128.29 C 173.47 128.64 173.14 128.97 172.79 129.29 C 172.45 129.61 172.05 129.89 171.71 130.21 C 171.36 130.53 171.03 130.86 170.72 131.22 C 170.40 131.57 170.14 131.97 169.84 132.34 C 169.55 132.71 169.26 133.09 168.95 133.45 C 168.64 133.81 168.32 134.15 167.99 134.49 C 167.67 134.82 167.33 135.17 167.00 135.46 C 166.67 135.76 166.33 136.08 166.01 136.26 C 165.69 136.44 165.35 136.58 165.07 136.53 C 164.78 136.49 164.50 136.29 164.28 135.98 C 164.07 135.68 163.90 135.19 163.78 134.68 C 163.66 134.18 163.61 133.54 163.56 132.94 C 163.50 132.33 163.50 131.67 163.45 131.05 C 163.41 130.43 163.36 129.81 163.28 129.22 C 163.21 128.62 163.10 128.07 163.00 127.50 C 162.90 126.93 162.79 126.38 162.70 125.80 C 162.61 125.22 162.55 124.62 162.46 124.04 C 162.37 123.46 162.28 122.89 162.18 122.33 C 162.08 121.77 161.93 121.23 161.85 120.68 C 161.77 120.13 161.70 119.56 161.72 119.02 C 161.73 118.48 161.82 117.92 161.97 117.43 C 162.12 116.95 162.36 116.52 162.62 116.11 C 162.88 115.71 163.20 115.37 163.52 115.02 C 163.83 114.67 164.17 114.34 164.50 114.00 C 164.83 113.67 165.17 113.33 165.50 113.00 C 165.83 112.67 166.17 112.33 166.50 112.00 C 166.83 111.67 167.17 111.33 167.50 111.00 C 167.83 110.67 168.17 110.33 168.50 110.00 C 168.83 109.67 169.17 109.33 169.50 109.00 C 169.83 108.67 170.17 108.33 170.50 108.00 C 170.83 107.67 171.17 107.33 171.50 107.00 C 171.83 106.67 172.17 106.33 172.50 106.00 C 172.83 105.67 173.17 105.33 173.50 105.00 C 173.83 104.67 174.17 104.33 174.50 104.00 C 174.83 103.67 175.17 103.33 175.50 103.00 C 175.83 102.67 176.17 102.33 176.50 102.00 C 176.83 101.67 177.17 101.33 177.50 101.00 C 177.83 100.67 178.17 100.33 178.50 100.00 C 178.83 99.67 179.17 99.33 179.50 99.00 C 179.83 98.67 180.17 98.33 180.50 98.00 C 180.83 97.67 181.17 97.33 181.50 97.00 C 181.83 96.67 182.17 96.33 182.50 96.00 C 182.83 95.67 183.17 95.33 183.50 95.00 C 183.83 94.67 184.17 94.33 184.50 94.00 C 184.83 93.67 185.17 93.33 185.50 93.00 C 185.83 92.67 186.17 92.33 186.50 92.00 C 186.83 91.67 187.17 91.33 187.50 91.00 C 187.83 90.67 188.17 90.33 188.50 90.00 C 188.83 89.66 189.17 89.33 189.49 88.99 C 189.82 88.65 190.14 88.31 190.44 87.94 C 190.74 87.57 191.03 87.19 191.28 86.78 C 191.54 86.37 191.76 85.93 191.98 85.48 C 192.21 85.04 192.41 84.58 192.62 84.12 C 192.82 83.65 193.02 83.19 193.21 82.71 C 193.39 82.22 193.57 81.74 193.73 81.23 C 193.88 80.72 194.04 80.20 194.15 79.65 C 194.26 79.10 194.34 78.51 194.40 77.90 C 194.46 77.29 194.47 76.63 194.48 75.98 C 194.50 75.34 194.50 74.66 194.49 74.01 C 194.48 73.35 194.48 72.69 194.44 72.06 C 194.41 71.43 194.36 70.81 194.27 70.23 C 194.19 69.64 194.07 69.09 193.94 68.56 C 193.81 68.02 193.65 67.52 193.48 67.02 C 193.32 66.52 193.14 66.02 192.95 65.55 C 192.76 65.08 192.55 64.62 192.32 64.18 C 192.10 63.73 191.86 63.31 191.61 62.89 C 191.36 62.47 191.10 62.07 190.82 61.68 C 190.55 61.29 190.26 60.91 189.95 60.55 C 189.64 60.19 189.32 59.85 188.99 59.51 C 188.67 59.17 188.33 58.83 188.00 58.50 C 187.67 58.17 187.33 57.83 186.99 57.51 C 186.65 57.18 186.31 56.86 185.94 56.56 C 185.57 56.26 185.19 55.97 184.78 55.72 C 184.37 55.46 183.93 55.24 183.48 55.02 C 183.04 54.79 182.58 54.59 182.12 54.38 C 181.65 54.18 181.19 53.98 180.71 53.79 C 180.22 53.61 179.74 53.43 179.23 53.27 C 178.72 53.12 178.20 52.96 177.65 52.85 C 177.10 52.74 176.51 52.66 175.90 52.60 C 175.29 52.54 174.63 52.53 173.98 52.52 C 173.34 52.50 172.66 52.50 172.01 52.51 C 171.35 52.52 170.69 52.52 170.06 52.56 C 169.43 52.59 168.81 52.64 168.23 52.73 C 167.64 52.81 167.09 52.93 166.56 53.06 C 166.02 53.19 165.52 53.35 165.02 53.52 C 164.52 53.68 164.02 53.86 163.55 54.05 C 163.08 54.24 162.62 54.45 162.18 54.68 C 161.73 54.90 161.31 55.14 160.89 55.39 C 160.47 55.64 160.07 55.90 159.68 56.18 C 159.29 56.45 158.91 56.74 158.55 57.05 C 158.19 57.36 157.85 57.68 157.51 58.01 C 157.17 58.33 156.84 58.67 156.50 59.00 C 156.17 59.33 155.83 59.67 155.50 60.00 C 155.17 60.33 154.83 60.67 154.50 61.00 C 154.17 61.33 153.83 61.67 153.50 62.00 C 153.17 62.33 152.83 62.67 152.50 63.00 C 152.17 63.33 151.83 63.67 151.50 64.00 C 151.17 64.33 150.83 64.67 150.50 65.00 C 150.17 65.33 149.83 65.67 149.50 66.00 C 149.17 66.33 148.83 66.67 148.50 67.00 C 148.17 67.33 147.83 67.67 147.50 68.00 C 147.17 68.33 146.83 68.67 146.50 69.00 C 146.17 69.33 145.83 69.67 145.50 70.00 C 145.17 70.33 144.83 70.67 144.50 71.00 C 144.17 71.33 143.83 71.67 143.50 72.00 C 143.17 72.33 142.83 72.67 142.50 73.00 C 142.17 73.33 141.83 73.67 141.50 74.00 C 141.17 74.33 140.83 74.67 140.50 75.00 C 140.17 75.33 139.83 75.67 139.50 76.00 C 139.17 76.33 138.83 76.67 138.50 77.00 C 138.17 77.33 137.83 77.67 137.50 78.00 C 137.17 78.33 136.83 78.67 136.50 79.00 C 136.17 79.33 135.83 79.67 135.50 80.00 C 135.17 80.33 134.83 80.67 134.50 81.00 C 134.17 81.33 133.83 81.67 133.50 82.00 C 133.17 82.33 132.83 82.67 132.50 83.00 C 132.17 83.33 131.83 83.67 131.50 84.00 C 131.17 84.33 130.83 84.67 130.50 85.00 C 130.17 85.33 129.83 85.67 129.50 86.00 C 129.17 86.33 128.83 86.67 128.50 87.00 C 128.17 87.33 127.83 87.67 127.50 88.00 C 127.17 88.33 126.83 88.67 126.50 89.00 C 126.17 89.33 125.83 89.67 125.50 90.00 C 125.17 90.33 124.83 90.67 124.50 91.00 C 124.17 91.33 123.83 91.67 123.50 92.00 C 123.17 92.33 122.83 92.67 122.50 93.00 C 122.17 93.33 121.83 93.67 121.50 94.00 C 121.17 94.33 120.83 94.67 120.50 95.00 C 120.17 95.33 119.83 95.67 119.50 96.00 C 119.17 96.33 118.83 96.67 118.50 97.00 C 118.17 97.33 117.83 97.67 117.50 98.00 C 117.17 98.33 116.83 98.67 116.50 99.00 C 116.17 99.34 115.83 99.67 115.51 100.01 C 115.18 100.35 114.86 100.69 114.56 101.06 C 114.26 101.43 113.97 101.81 113.72 102.22 C 113.46 102.63 113.24 103.07 113.02 103.52 C 112.79 103.96 112.59 104.42 112.38 104.88 C 112.18 105.35 111.98 105.81 111.79 106.29 C 111.61 106.78 111.43 107.26 111.27 107.77 C 111.12 108.28 110.96 108.80 110.85 109.35 C 110.74 109.90 110.66 110.49 110.60 111.10 C 110.54 111.71 110.53 112.37 110.52 113.02 C 110.50 113.66 110.50 114.34 110.51 114.99 C 110.52 115.65 110.52 116.31 110.56 116.94 C 110.59 117.57 110.64 118.19 110.73 118.77 C 110.81 119.36 110.93 119.91 111.06 120.44 C 111.19 120.98 111.35 121.48 111.52 121.98 C 111.68 122.48 111.86 122.98 112.06 123.44 C 112.26 123.91 112.48 124.36 112.72 124.78 C 112.96 125.21 113.24 125.60 113.51 125.99 C 113.78 126.39 114.07 126.77 114.34 127.16 C 114.62 127.55 114.88 127.95 115.17 128.33 C 115.45 128.71 115.74 129.09 116.05 129.45 C 116.36 129.81 116.68 130.15 117.02 130.48 C 117.35 130.82 117.69 131.14 118.05 131.45 C 118.41 131.76 118.79 132.05 119.17 132.33 C 119.56 132.60 119.97 132.86 120.38 133.12 C 120.79 133.38 121.21 133.62 121.63 133.87 C 122.04 134.13 122.46 134.37 122.87 134.63 C 123.28 134.88 123.71 135.12 124.08 135.38 C 124.45 135.64 124.85 135.90 125.09 136.18 C 125.34 136.45 125.52 136.74 125.56 137.06 C 125.59 137.37 125.46 137.71 125.31 138.06 C 125.15 138.41 124.88 138.79 124.63 139.17 C 124.39 139.55 124.11 139.95 123.83 140.33 C 123.55 140.71 123.26 141.09 122.95 141.45 C 122.64 141.81 122.32 142.15 121.99 142.49 C 121.67 142.83 121.33 143.16 121.00 143.50 C 120.67 143.83 120.33 144.17 120.00 144.50 C 119.67 144.83 119.33 145.17 119.00 145.50 C 118.66 145.83 118.33 146.17 117.98 146.48 C 117.63 146.79 117.29 147.12 116.89 147.37 C 116.50 147.62 116.07 147.86 115.62 147.98 Z" fill-rule="nonzero"/>
  <path transform="translate(125 -15) rotate(45) scale(0.9)" fill="#E7B413" d="M 78.66 211.16 C 78.10 211.26 77.51 211.35 76.90 211.40 C 76.29 211.45 75.63 211.47 74.99 211.48 C 74.34 211.50 73.66 211.50 73.01 211.48 C 72.37 211.47 71.71 211.45 71.10 211.40 C 70.49 211.35 69.90 211.26 69.34 211.16 C 68.78 211.05 68.26 210.91 67.72 210.78 C 67.19 210.65 66.66 210.51 66.13 210.37 C 65.60 210.24 65.06 210.10 64.54 209.96 C 64.02 209.81 63.51 209.65 63.01 209.49 C 62.50 209.33 62.00 209.17 61.50 209.00 C 61.00 208.83 60.50 208.67 60.01 208.49 C 59.52 208.32 59.02 208.14 58.55 207.95 C 58.08 207.76 57.62 207.55 57.17 207.33 C 56.72 207.12 56.28 206.88 55.84 206.66 C 55.40 206.43 54.95 206.22 54.51 205.99 C 54.07 205.76 53.63 205.54 53.22 205.28 C 52.81 205.03 52.43 204.74 52.06 204.44 C 51.69 204.15 51.35 203.82 51.00 203.50 C 50.65 203.18 50.31 202.85 49.95 202.55 C 49.59 202.24 49.21 201.95 48.83 201.67 C 48.45 201.38 48.05 201.12 47.67 200.83 C 47.30 200.53 46.93 200.23 46.60 199.90 C 46.27 199.57 45.97 199.20 45.67 198.83 C 45.38 198.45 45.12 198.05 44.83 197.67 C 44.55 197.28 44.26 196.91 43.96 196.54 C 43.66 196.17 43.34 195.83 43.04 195.46 C 42.74 195.09 42.45 194.72 42.17 194.33 C 41.90 193.93 41.64 193.53 41.39 193.11 C 41.14 192.69 40.90 192.27 40.67 191.83 C 40.44 191.40 40.22 190.94 40.01 190.49 C 39.79 190.04 39.59 189.58 39.38 189.12 C 39.18 188.65 38.98 188.19 38.79 187.71 C 38.60 187.23 38.43 186.74 38.26 186.24 C 38.08 185.75 37.92 185.25 37.75 184.75 C 37.58 184.25 37.42 183.75 37.26 183.24 C 37.10 182.74 36.94 182.23 36.79 181.71 C 36.65 181.19 36.51 180.65 36.38 180.12 C 36.25 179.58 36.13 179.04 36.02 178.48 C 35.90 177.93 35.79 177.37 35.72 176.78 C 35.64 176.19 35.59 175.57 35.56 174.94 C 35.52 174.31 35.52 173.65 35.51 172.99 C 35.50 172.34 35.50 171.66 35.52 171.02 C 35.53 170.37 35.55 169.71 35.60 169.10 C 35.65 168.49 35.74 167.90 35.84 167.34 C 35.95 166.78 36.09 166.26 36.22 165.72 C 36.35 165.19 36.49 164.66 36.63 164.13 C 36.76 163.60 36.90 163.06 37.04 162.54 C 37.19 162.02 37.35 161.51 37.51 161.01 C 37.67 160.50 37.83 160.00 38.00 159.50 C 38.17 159.00 38.33 158.50 38.51 158.01 C 38.68 157.52 38.86 157.02 39.05 156.55 C 39.24 156.08 39.45 155.62 39.67 155.17 C 39.88 154.72 40.12 154.28 40.34 153.84 C 40.57 153.40 40.78 152.95 41.01 152.51 C 41.24 152.07 41.46 151.63 41.72 151.22 C 41.97 150.81 42.26 150.43 42.56 150.06 C 42.85 149.69 43.18 149.35 43.50 149.00 C 43.82 148.65 44.15 148.31 44.45 147.95 C 44.76 147.59 45.05 147.21 45.33 146.83 C 45.62 146.45 45.88 146.05 46.17 145.67 C 46.45 145.29 46.74 144.91 47.05 144.55 C 47.36 144.19 47.68 143.85 48.01 143.51 C 48.33 143.17 48.67 142.84 49.00 142.50 C 49.33 142.17 49.67 141.83 50.00 141.50 C 50.33 141.17 50.67 140.83 51.00 140.50 C 51.33 140.17 51.67 139.83 52.00 139.50 C 52.33 139.17 52.67 138.83 53.00 138.50 C 53.33 138.17 53.67 137.83 54.00 137.50 C 54.33 137.17 54.67 136.83 55.00 136.50 C 55.33 136.17 55.67 135.83 56.00 135.50 C 56.33 135.17 56.67 134.83 57.00 134.50 C 57.33 134.17 57.67 133.83 58.00 133.50 C 58.33 133.17 58.67 132.83 59.00 132.50 C 59.33 132.17 59.67 131.83 60.00 131.50 C 60.33 131.17 60.67 130.83 61.00 130.50 C 61.33 130.17 61.67 129.83 62.00 129.50 C 62.33 129.17 62.67 128.83 63.00 128.50 C 63.33 128.17 63.67 127.83 64.00 127.50 C 64.33 127.17 64.67 126.83 65.00 126.50 C 65.33 126.17 65.67 125.83 66.00 125.50 C 66.33 125.17 66.67 124.83 67.00 124.50 C 67.33 124.17 67.67 123.83 68.00 123.50 C 68.33 123.17 68.67 122.83 69.00 122.50 C 69.33 122.17 69.67 121.83 70.00 121.50 C 70.33 121.17 70.67 120.83 71.00 120.50 C 71.33 120.17 71.67 119.83 72.00 119.50 C 72.33 119.17 72.67 118.83 73.00 118.50 C 73.34 118.17 73.67 117.83 74.01 117.51 C 74.35 117.18 74.69 116.86 75.05 116.55 C 75.41 116.24 75.79 115.95 76.16 115.66 C 76.53 115.36 76.93 115.10 77.28 114.78 C 77.64 114.47 77.97 114.14 78.28 113.78 C 78.60 113.43 78.86 113.03 79.16 112.66 C 79.45 112.30 79.74 111.90 80.05 111.58 C 80.35 111.27 80.68 110.94 81.00 110.75 C 81.31 110.56 81.65 110.42 81.93 110.47 C 82.22 110.51 82.50 110.71 82.72 111.02 C 82.93 111.32 83.10 111.81 83.22 112.32 C 83.34 112.82 83.39 113.46 83.44 114.06 C 83.50 114.67 83.50 115.33 83.55 115.95 C 83.59 116.57 83.64 117.19 83.72 117.78 C 83.79 118.38 83.90 118.93 84.00 119.50 C 84.10 120.07 84.21 120.62 84.30 121.20 C 84.39 121.78 84.45 122.38 84.54 122.96 C 84.63 123.54 84.72 124.11 84.82 124.67 C 84.92 125.23 85.07 125.77 85.15 126.32 C 85.23 126.87 85.30 127.44 85.28 127.98 C 85.27 128.52 85.18 129.08 85.03 129.57 C 84.88 130.05 84.64 130.48 84.38 130.89 C 84.12 131.29 83.80 131.63 83.48 131.98 C 83.17 132.33 82.83 132.66 82.50 133.00 C 82.17 133.33 81.83 133.67 81.50 134.00 C 81.17 134.33 80.83 134.67 80.50 135.00 C 80.17 135.33 79.83 135.67 79.50 136.00 C 79.17 136.33 78.83 136.67 78.50 137.00 C 78.17 137.33 77.83 137.67 77.50 138.00 C 77.17 138.33 76.83 138.67 76.50 139.00 C 76.17 139.33 75.83 139.67 75.50 140.00 C 75.17 140.33 74.83 140.67 74.50 141.00 C 74.17 141.33 73.83 141.67 73.50 142.00 C 73.17 142.33 72.83 142.67 72.50 143.00 C 72.17 143.33 71.83 143.67 71.50 144.00 C 71.17 144.33 70.83 144.67 70.50 145.00 C 70.17 145.33 69.83 145.67 69.50 146.00 C 69.17 146.33 68.83 146.67 68.50 147.00 C 68.17 147.33 67.83 147.67 67.50 148.00 C 67.17 148.33 66.83 148.67 66.50 149.00 C 66.17 149.33 65.83 149.67 65.50 150.00 C 65.17 150.33 64.83 150.67 64.50 151.00 C 64.17 151.33 63.83 151.67 63.50 152.00 C 63.17 152.33 62.83 152.67 62.50 153.00 C 62.17 153.33 61.83 153.67 61.50 154.00 C 61.17 154.33 60.83 154.67 60.50 155.00 C 60.17 155.33 59.83 155.67 59.50 156.00 C 59.17 156.33 58.83 156.67 58.50 157.00 C 58.17 157.34 57.83 157.67 57.51 158.01 C 57.18 158.35 56.86 158.69 56.56 159.06 C 56.26 159.43 55.97 159.81 55.72 160.22 C 55.46 160.63 55.24 161.07 55.02 161.52 C 54.79 161.96 54.59 162.42 54.38 162.88 C 54.18 163.35 53.98 163.81 53.79 164.29 C 53.61 164.78 53.43 165.26 53.27 165.77 C 53.12 166.28 52.96 166.80 52.85 167.35 C 52.74 167.90 52.66 168.49 52.60 169.10 C 52.54 169.71 52.53 170.37 52.52 171.02 C 52.50 171.66 52.50 172.34 52.51 172.99 C 52.52 173.65 52.52 174.31 52.56 174.94 C 52.59 175.57 52.64 176.19 52.73 176.77 C 52.81 177.36 52.93 177.91 53.06 178.44 C 53.19 178.98 53.35 179.48 53.52 179.98 C 53.68 180.48 53.86 180.98 54.05 181.45 C 54.24 181.92 54.45 182.38 54.68 182.82 C 54.90 183.27 55.14 183.69 55.39 184.11 C 55.64 184.53 55.90 184.93 56.18 185.32 C 56.45 185.71 56.74 186.09 57.05 186.45 C 57.36 186.81 57.68 187.15 58.01 187.49 C 58.33 187.83 58.67 188.17 59.00 188.50 C 59.33 188.83 59.67 189.17 60.01 189.49 C 60.35 189.82 60.69 190.14 61.06 190.44 C 61.43 190.74 61.81 191.03 62.22 191.28 C 62.63 191.54 63.07 191.76 63.52 191.98 C 63.96 192.21 64.42 192.41 64.88 192.62 C 65.35 192.82 65.81 193.02 66.29 193.21 C 66.78 193.39 67.26 193.57 67.77 193.73 C 68.28 193.88 68.80 194.04 69.35 194.15 C 69.90 194.26 70.49 194.34 71.10 194.40 C 71.71 194.46 72.37 194.47 73.02 194.48 C 73.66 194.50 74.34 194.50 74.99 194.49 C 75.65 194.48 76.31 194.48 76.94 194.44 C 77.57 194.41 78.19 194.36 78.77 194.27 C 79.36 194.19 79.91 194.07 80.44 193.94 C 80.98 193.81 81.48 193.65 81.98 193.48 C 82.48 193.32 82.98 193.14 83.45 192.95 C 83.92 192.76 84.38 192.55 84.82 192.32 C 85.27 192.10 85.69 191.86 86.11 191.61 C 86.53 191.36 86.93 191.10 87.32 190.82 C 87.71 190.55 88.09 190.26 88.45 189.95 C 88.81 189.64 89.15 189.32 89.49 188.99 C 89.83 188.67 90.16 188.33 90.50 188.00 C 90.83 187.67 91.17 187.33 91.50 187.00 C 91.83 186.67 92.17 186.33 92.50 186.00 C 92.83 185.67 93.17 185.33 93.50 185.00 C 93.83 184.67 94.17 184.33 94.50 184.00 C 94.83 183.67 95.17 183.33 95.50 183.00 C 95.83 182.67 96.17 182.33 96.50 182.00 C 96.83 181.67 97.17 181.33 97.50 181.00 C 97.83 180.67 98.17 180.33 98.50 180.00 C 98.83 179.67 99.17 179.33 99.50 179.00 C 99.83 178.67 100.17 178.33 100.50 178.00 C 100.83 177.67 101.17 177.33 101.50 177.00 C 101.83 176.67 102.17 176.33 102.50 176.00 C 102.83 175.67 103.17 175.33 103.50 175.00 C 103.83 174.67 104.17 174.33 104.50 174.00 C 104.83 173.67 105.17 173.33 105.50 173.00 C 105.83 172.67 106.17 172.33 106.50 172.00 C 106.83 171.67 107.17 171.33 107.50 171.00 C 107.83 170.67 108.17 170.33 108.50 170.00 C 108.83 169.67 109.17 169.33 109.50 169.00 C 109.83 168.67 110.17 168.33 110.50 168.00 C 110.83 167.67 111.17 167.33 111.50 167.00 C 111.83 166.67 112.17 166.33 112.50 166.00 C 112.83 165.67 113.17 165.33 113.50 165.00 C 113.83 164.67 114.17 164.33 114.50 164.00 C 114.83 163.67 115.17 163.33 115.50 163.00 C 115.83 162.67 116.17 162.33 116.50 162.00 C 116.83 161.67 117.17 161.33 117.50 161.00 C 117.83 160.67 118.17 160.33 118.50 160.00 C 118.83 159.67 119.17 159.33 119.50 159.00 C 119.83 158.67 120.17 158.33 120.50 158.00 C 120.83 157.67 121.17 157.33 121.50 157.00 C 121.83 156.67 122.17 156.33 122.50 156.00 C 122.83 155.67 123.17 155.33 123.50 155.00 C 123.83 154.67 124.17 154.33 124.50 154.00 C 124.83 153.67 125.17 153.33 125.50 153.00 C 125.83 152.67 126.17 152.33 126.50 152.00 C 126.83 151.67 127.17 151.33 127.50 151.00 C 127.83 150.67 128.17 150.33 128.50 150.00 C 128.83 149.67 129.17 149.33 129.50 149.00 C 129.83 148.67 130.17 148.33 130.50 148.00 C 130.83 147.66 131.17 147.33 131.49 146.99 C 131.82 146.65 132.14 146.31 132.44 145.94 C 132.74 145.57 133.03 145.19 133.28 144.78 C 133.54 144.37 133.76 143.93 133.98 143.48 C 134.21 143.04 134.41 142.58 134.62 142.12 C 134.82 141.65 135.02 141.19 135.21 140.71 C 135.39 140.22 135.57 139.74 135.73 139.23 C 135.88 138.72 136.04 138.20 136.15 137.65 C 136.26 137.10 136.34 136.51 136.40 135.90 C 136.46 135.29 136.47 134.63 136.48 133.98 C 136.50 133.34 136.50 132.66 136.49 132.01 C 136.48 131.35 136.48 130.69 136.44 130.06 C 136.41 129.43 136.36 128.81 136.27 128.23 C 136.19 127.64 136.07 127.09 135.94 126.56 C 135.81 126.02 135.65 125.52 135.48 125.02 C 135.32 124.52 135.14 124.02 134.94 123.56 C 134.74 123.09 134.52 122.64 134.28 122.22 C 134.04 121.79 133.76 121.40 133.49 121.01 C 133.22 120.61 132.93 120.23 132.66 119.84 C 132.38 119.45 132.12 119.05 131.83 118.67 C 131.55 118.29 131.26 117.91 130.95 117.55 C 130.64 117.19 130.32 116.85 129.98 116.52 C 129.65 116.18 129.31 115.86 128.95 115.55 C 128.59 115.24 128.21 114.95 127.83 114.67 C 127.44 114.40 127.03 114.14 126.62 113.88 C 126.21 113.62 125.79 113.38 125.37 113.13 C 124.96 112.87 124.54 112.63 124.13 112.37 C 123.72 112.12 123.29 111.88 122.92 111.62 C 122.55 111.36 122.15 111.10 121.91 110.82 C 121.66 110.55 121.48 110.26 121.44 109.94 C 121.41 109.63 121.54 109.29 121.69 108.94 C 121.85 108.59 122.12 108.21 122.37 107.83 C 122.61 107.45 122.89 107.05 123.17 106.67 C 123.45 106.29 123.74 105.91 124.05 105.55 C 124.36 105.19 124.68 104.85 125.01 104.51 C 125.33 104.17 125.67 103.84 126.00 103.50 C 126.33 103.17 126.67 102.83 127.00 102.50 C 127.33 102.17 127.67 101.83 128.00 101.50 C 128.33 101.17 128.67 100.83 129.00 100.50 C 129.33 100.18 129.67 99.83 130.00 99.53 C 130.34 99.24 130.67 98.92 131.01 98.72 C 131.35 98.53 131.69 98.38 132.05 98.35 C 132.41 98.32 132.79 98.42 133.17 98.56 C 133.56 98.69 133.98 98.93 134.38 99.15 C 134.79 99.37 135.21 99.63 135.62 99.89 C 136.02 100.14 136.44 100.40 136.83 100.67 C 137.21 100.95 137.59 101.24 137.95 101.55 C 138.31 101.86 138.65 102.18 138.99 102.51 C 139.33 102.83 139.66 103.17 140.00 103.50 C 140.33 103.83 140.67 104.17 141.00 104.50 C 141.33 104.83 141.67 105.17 142.00 105.50 C 142.33 105.83 142.67 106.17 143.00 106.50 C 143.33 106.84 143.67 107.17 143.99 107.51 C 144.32 107.85 144.64 108.19 144.95 108.55 C 145.26 108.91 145.55 109.29 145.83 109.67 C 146.12 110.05 146.38 110.45 146.66 110.84 C 146.93 111.23 147.22 111.61 147.49 112.01 C 147.76 112.40 148.04 112.79 148.29 113.21 C 148.54 113.63 148.76 114.07 148.98 114.52 C 149.21 114.96 149.41 115.42 149.62 115.88 C 149.82 116.35 150.02 116.81 150.21 117.29 C 150.40 117.77 150.57 118.26 150.74 118.76 C 150.92 119.25 151.08 119.75 151.25 120.25 C 151.41 120.75 151.58 121.25 151.73 121.77 C 151.89 122.28 152.04 122.79 152.17 123.33 C 152.29 123.87 152.39 124.44 152.50 125.00 C 152.61 125.56 152.71 126.13 152.82 126.68 C 152.93 127.24 153.07 127.77 153.16 128.34 C 153.26 128.90 153.35 129.49 153.40 130.10 C 153.45 130.71 153.47 131.37 153.48 132.01 C 153.48 132.65 153.47 133.31 153.44 133.94 C 153.41 134.57 153.36 135.19 153.28 135.78 C 153.21 136.37 153.10 136.93 152.99 137.49 C 152.89 138.05 152.77 138.60 152.66 139.16 C 152.55 139.72 152.45 140.28 152.33 140.83 C 152.21 141.38 152.09 141.92 151.95 142.45 C 151.81 142.98 151.65 143.48 151.49 143.99 C 151.33 144.50 151.17 145.00 151.00 145.50 C 150.83 146.00 150.67 146.50 150.49 146.99 C 150.32 147.48 150.14 147.98 149.95 148.45 C 149.76 148.92 149.55 149.38 149.33 149.83 C 149.10 150.27 148.86 150.69 148.62 151.12 C 148.37 151.54 148.12 151.96 147.87 152.37 C 147.62 152.79 147.37 153.21 147.12 153.62 C 146.86 154.03 146.60 154.44 146.33 154.83 C 146.05 155.21 145.75 155.59 145.45 155.95 C 145.15 156.31 144.82 156.65 144.50 157.00 C 144.18 157.35 143.85 157.69 143.55 158.05 C 143.24 158.41 142.95 158.79 142.67 159.17 C 142.38 159.55 142.12 159.95 141.83 160.33 C 141.53 160.70 141.23 161.07 140.90 161.40 C 140.57 161.73 140.20 162.03 139.83 162.33 C 139.45 162.62 139.05 162.88 138.67 163.17 C 138.30 163.47 137.93 163.77 137.60 164.10 C 137.26 164.43 136.97 164.80 136.67 165.17 C 136.36 165.53 136.10 165.93 135.78 166.28 C 135.47 166.64 135.14 166.97 134.78 167.28 C 134.43 167.60 134.03 167.86 133.66 168.16 C 133.29 168.45 132.91 168.74 132.55 169.05 C 132.19 169.36 131.85 169.68 131.52 170.02 C 131.18 170.35 130.86 170.69 130.55 171.05 C 130.24 171.41 129.95 171.79 129.66 172.16 C 129.36 172.53 129.10 172.93 128.78 173.28 C 128.47 173.64 128.14 173.97 127.78 174.28 C 127.43 174.60 127.03 174.86 126.66 175.16 C 126.29 175.46 125.91 175.74 125.56 176.06 C 125.21 176.37 124.87 176.71 124.56 177.06 C 124.24 177.41 123.96 177.79 123.66 178.16 C 123.36 178.53 123.10 178.93 122.78 179.28 C 122.47 179.64 122.14 179.97 121.78 180.28 C 121.43 180.60 121.03 180.86 120.66 181.16 C 120.29 181.45 119.91 181.74 119.55 182.05 C 119.19 182.36 118.85 182.68 118.51 183.01 C 118.17 183.33 117.84 183.67 117.50 184.00 C 117.17 184.33 116.83 184.67 116.50 185.00 C 116.17 185.33 115.83 185.67 115.50 186.00 C 115.17 186.33 114.83 186.67 114.50 187.00 C 114.17 187.33 113.83 187.67 113.50 188.00 C 113.17 188.33 112.83 188.67 112.50 189.00 C 112.17 189.33 111.83 189.67 111.50 190.00 C 111.17 190.33 110.83 190.67 110.50 191.00 C 110.17 191.33 109.83 191.67 109.50 192.00 C 109.17 192.33 108.83 192.67 108.50 193.00 C 108.17 193.33 107.83 193.67 107.50 194.00 C 107.17 194.33 106.83 194.67 106.50 195.00 C 106.17 195.33 105.83 195.67 105.50 196.00 C 105.17 196.33 104.83 196.67 104.50 197.00 C 104.17 197.33 103.83 197.67 103.50 198.00 C 103.17 198.33 102.83 198.67 102.50 199.00 C 102.17 199.33 101.83 199.67 101.50 200.00 C 101.17 200.33 100.83 200.67 100.50 201.00 C 100.16 201.33 99.83 201.67 99.49 201.99 C 99.15 202.32 98.81 202.64 98.45 202.95 C 98.09 203.26 97.71 203.55 97.33 203.83 C 96.95 204.12 96.55 204.38 96.16 204.66 C 95.77 204.93 95.39 205.22 94.99 205.49 C 94.60 205.76 94.21 206.04 93.79 206.29 C 93.37 206.54 92.93 206.76 92.48 206.98 C 92.04 207.21 91.58 207.41 91.12 207.62 C 90.65 207.82 90.19 208.02 89.71 208.21 C 89.23 208.40 88.74 208.57 88.24 208.74 C 87.75 208.92 87.25 209.08 86.75 209.25 C 86.25 209.41 85.75 209.58 85.23 209.73 C 84.72 209.89 84.21 210.04 83.67 210.17 C 83.13 210.29 82.56 210.39 82.00 210.50 C 81.44 210.61 80.87 210.71 80.32 210.82 C 79.76 210.93 79.23 211.07 78.66 211.16 Z" fill-rule="nonzero"/>
</svg>
